HIERARCHY
ROOT Hips
{
    OFFSET 0.000 93.594 0.000
    CHANNELS 6 Xposition Yposition Zposition Yrotation Xrotation Zrotation
    JOINT RightHip
    {
        OFFSET -9.500 -1.594 0.000
        CHANNELS 3 Yrotation Xrotation Zrotation
        JOINT RightKnee
        {
            OFFSET 0.000 -42.000 0.000
            CHANNELS 3 Yrotation Xrotation Zrotation
            JOINT RightAnkle
            {
                OFFSET 0.000 -42.000 0.000
                CHANNELS 3 Yrotation Xrotation Zrotation
                End Site
                {
                    OFFSET 0.000 -8.000 17.500
                }
            }
        }
    }
    JOINT LeftHip
    {
        OFFSET 9.500 -1.594 0.000
        CHANNELS 3 Yrotation Xrotation Zrotation
        JOINT LeftKnee
        {
            OFFSET 0.000 -42.000 0.000
            CHANNELS 3 Yrotation Xrotation Zrotation
            JOINT LeftAnkle
            {
                OFFSET 0.000 -42.000 0.000
                CHANNELS 3 Yrotation Xrotation Zrotation
                End Site
                {
                    OFFSET 0.000 -8.000 17.500
                }
            }
        }
    }
    JOINT Chest
    {
        OFFSET 0.000 14.348 0.000
        CHANNELS 3 Yrotation Xrotation Zrotation
        JOINT Chest2
        {
            OFFSET 0.000 9.746 0.000
            CHANNELS 3 Yrotation Xrotation Zrotation
            JOINT Chest3
            {
                OFFSET 0.000 10.149 0.000
                CHANNELS 3 Yrotation Xrotation Zrotation
                JOINT Chest4
                {
                    OFFSET 0.000 9.746 0.000
                    CHANNELS 3 Yrotation Xrotation Zrotation
                    JOINT Neck
                    {
                        OFFSET 0.000 10.417 0.000
                        CHANNELS 3 Yrotation Xrotation Zrotation
                        JOINT Head
                        {
                            OFFSET 0.000 9.000 0.000
                            CHANNELS 3 Yrotation Xrotation Zrotation
                            End Site
                            {
                                OFFSET 0.000 16.000 0.000
                            }
                        }
                    }
                    JOINT RightCollar
                    {
                        OFFSET -3.200 6.945 0.000
                        CHANNELS 3 Yrotation Xrotation Zrotation
                        JOINT RightShoulder
                        {
                            OFFSET -12.800 0.000 0.000
                            CHANNELS 3 Yrotation Xrotation Zrotation
                            JOINT RightElbow
                            {
OFFSET -0 -27 0.000
						CHANNELS 3 Xrotation Yrotation Zrotation
                                JOINT RightWrist
                                {
OFFSET -0 -26 0.000
						CHANNELS 3 Xrotation Yrotation Zrotation
                                    JOINT RightFinger0
                                    {
OFFSET -0.196 -2.56 3.210
						CHANNELS 3 Xrotation Yrotation Zrotation
                                        JOINT RightFinger01
                                        {
OFFSET -0 -3.788 0.000
						CHANNELS 3 Xrotation Yrotation Zrotation
                                            JOINT RightFinger0Nub
                                            {
OFFSET -0 -2.631 0.000
						CHANNELS 3 Xrotation Yrotation Zrotation
                                                End Site
                                                {
OFFSET 0 -2.256 0
                                                }
                                            }
                                        }
                                    }
                                    JOINT RightFinger1
                                    {
OFFSET -0.523 -3.316 2.035
						CHANNELS 3 Xrotation Yrotation Zrotation
                                        JOINT RightFinger11
                                        {
OFFSET 0.094 -5.366 1.028
						CHANNELS 3 Xrotation Yrotation Zrotation
                                            JOINT RightFinger12
                                            {
OFFSET -0 -3.723 0.000
						CHANNELS 3 Xrotation Yrotation Zrotation
                                                JOINT RightFinger1Nub
                                                {
OFFSET -0 -2.111 0.000
						CHANNELS 3 Xrotation Yrotation Zrotation
                                                    End Site
                                                    {
OFFSET 0 -1.857 0
                                                    }
                                                }
                                            }
                                        }
                                    }
                                    JOINT RightFinger2
                                    {
OFFSET -0.532 -3.479 0.778
						CHANNELS 3 Xrotation Yrotation Zrotation
                                        JOINT RightFinger21
                                        {
OFFSET 0.086 -5.322 0.323
						CHANNELS 3 Xrotation Yrotation Zrotation
                                            JOINT RightFinger22
                                            {
OFFSET -0 -4.062 0.000
						CHANNELS 3 Xrotation Yrotation Zrotation
                                                JOINT RightFinger2Nub
                                                {
OFFSET -0 -2.547 0.000
						CHANNELS 3 Xrotation Yrotation Zrotation
                                                    End Site
                                                    {
OFFSET 0 -2.031 0
                                                    }
                                                }
                                            }
                                        }
                                    }
                                    JOINT RightFinger3
                                    {
OFFSET -0.553 -3.461 -0.133
						CHANNELS 3 Xrotation Yrotation Zrotation
                                        JOINT RightFinger31
                                        {
OFFSET 0.023 -4.767 -0.493
						CHANNELS 3 Xrotation Yrotation Zrotation
                                            JOINT RightFinger32
                                            {
OFFSET -0 -3.541 0.000
						CHANNELS 3 Xrotation Yrotation Zrotation
                                                JOINT RightFinger3Nub
                                                {
OFFSET -0 -2.456 0.000
						CHANNELS 3 Xrotation Yrotation Zrotation
                                                    End Site
                                                    {
OFFSET 0 -1.91 0
                                                    }
                                                }
                                            }
                                        }
                                    }
                                    JOINT RightFinger4
                                    {
OFFSET -0.483 -3.251 -1.236
						CHANNELS 3 Xrotation Yrotation Zrotation
                                        JOINT RightFinger41
                                        {
OFFSET 0.023 -4.259 -1.122
						CHANNELS 3 Xrotation Yrotation Zrotation
                                            JOINT RightFinger42
                                            {
OFFSET -0 -2.835 0.000
						CHANNELS 3 Xrotation Yrotation Zrotation
                                                JOINT RightFinger4Nub
                                                {
OFFSET -0 -1.792 0.000
						CHANNELS 3 Xrotation Yrotation Zrotation
                                                    End Site
                                                    {
OFFSET 0 -1.692 0
                                                    }
                                                }
                                            }
                                        }
                                    }
                                }
                            }
                        }
                    }
                    JOINT LeftCollar
                    {
                        OFFSET 3.200 6.945 0.000
                        CHANNELS 3 Yrotation Xrotation Zrotation
                        JOINT LeftShoulder
                        {
                            OFFSET 12.800 0.000 0.000
                            CHANNELS 3 Yrotation Xrotation Zrotation
                            JOINT LeftElbow
                            {
OFFSET -0 -27 0.000
						CHANNELS 3 Xrotation Yrotation Zrotation
                                JOINT LeftWrist
                                {
OFFSET -0 -26 0.000
						CHANNELS 3 Xrotation Yrotation Zrotation
                                    JOINT LeftFinger0
                                    {
OFFSET -0.196 -2.56 3.210
						CHANNELS 3 Xrotation Yrotation Zrotation
                                        JOINT LeftFinger01
                                        {
OFFSET -0 -3.788 0.000
						CHANNELS 3 Xrotation Yrotation Zrotation
                                            JOINT LeftFinger0Nub
                                            {
OFFSET -0 -2.631 0.000
						CHANNELS 3 Xrotation Yrotation Zrotation
                                                End Site
                                                {
OFFSET 0 -2.256 0
                                                }
                                            }
                                        }
                                    }
                                    JOINT LeftFinger1
                                    {
OFFSET -0.523 -3.316 2.035
						CHANNELS 3 Xrotation Yrotation Zrotation
                                        JOINT LeftFinger11
                                        {
OFFSET 0.094 -5.366 1.028
						CHANNELS 3 Xrotation Yrotation Zrotation
                                            JOINT LeftFinger12
                                            {
OFFSET -0 -3.723 0.000
						CHANNELS 3 Xrotation Yrotation Zrotation
                                                JOINT LeftFinger1Nub
                                                {
OFFSET -0 -2.111 0.000
						CHANNELS 3 Xrotation Yrotation Zrotation
                                                    End Site
                                                    {
OFFSET 0 -1.857 0
                                                    }
                                                }
                                            }
                                        }
                                    }
                                    JOINT LeftFinger2
                                    {
OFFSET -0.532 -3.479 0.778
						CHANNELS 3 Xrotation Yrotation Zrotation
                                        JOINT LeftFinger21
                                        {
OFFSET 0.086 -5.322 0.323
						CHANNELS 3 Xrotation Yrotation Zrotation
                                            JOINT LeftFinger22
                                            {
OFFSET -0 -4.062 0.000
						CHANNELS 3 Xrotation Yrotation Zrotation
                                                JOINT LeftFinger2Nub
                                                {
OFFSET -0 -2.547 0.000
						CHANNELS 3 Xrotation Yrotation Zrotation
                                                    End Site
                                                    {
OFFSET 0 -2.031 0
                                                    }
                                                }
                                            }
                                        }
                                    }
                                    JOINT LeftFinger3
                                    {
OFFSET -0.553 -3.461 -0.133
						CHANNELS 3 Xrotation Yrotation Zrotation
                                        JOINT LeftFinger31
                                        {
OFFSET 0.023 -4.767 -0.493
						CHANNELS 3 Xrotation Yrotation Zrotation
                                            JOINT LeftFinger32
                                            {
OFFSET -0 -3.541 0.000
						CHANNELS 3 Xrotation Yrotation Zrotation
                                                JOINT LeftFinger3Nub
                                                {
OFFSET -0 -2.456 0.000
						CHANNELS 3 Xrotation Yrotation Zrotation
                                                    End Site
                                                    {
OFFSET 0 -1.91 0
                                                    }
                                                }
                                            }
                                        }
                                    }
                                    JOINT LeftFinger4
                                    {
OFFSET -0.483 -3.251 -1.236
						CHANNELS 3 Xrotation Yrotation Zrotation
                                        JOINT LeftFinger41
                                        {
OFFSET 0.023 -4.259 -1.122
						CHANNELS 3 Xrotation Yrotation Zrotation
                                            JOINT LeftFinger42
                                            {
OFFSET -0 -2.835 0.000
						CHANNELS 3 Xrotation Yrotation Zrotation
                                                JOINT LeftFinger4Nub
                                                {
OFFSET -0 -1.792 0.000
						CHANNELS 3 Xrotation Yrotation Zrotation
                                                    End Site
                                                    {
OFFSET 0 -1.692 0
                                                    }
                                                }
                                            }
                                        }
                                    }
                                }
                            }
                        }
                    }
                }
            }
        }
    }
}
MOTION

Frames: 11
Frame Time: 0.017
-258.36 90.95 26.32 121.88 -6.37 -1.01 -13.45 -2.35 -2.54 0.00 34.09 0.00 -6.67 -21.63 0.61 3.71 -13.65 3.66 0.00 26.79 0.00 -2.46 -8.71 -1.68 -7.19 20.00 0.40 -1.73 4.48 0.35 -2.80 6.79 0.49 0.64 -1.58 -1.44 4.90 -25.56 -8.50 35.33 -17.87 -27.77 26.20 3.86 -23.24 3.88 -64.27 -37.8 -41.73 11.92 15.53 -9.92 15.65 1.45 -47.85 -0 16.62 14.83 -0 -13.21 -18.76 -0 0.00 0 -0 0.00 -15 -0 3.76 0 -0 2.39 0 -0 1.19 0 -0 0.00 0 -0 2.27 0 -0 2.27 0 -0 2.27 0 -0 0.00 15 -0 6.32 0 -0 6.32 0 -0 6.32 0 -0 0.00 25 -0 12.65 0 -0 12.65 0 -0 12.65 -17.84 12.72 14.23 -25.28 -55.98 58.25 -19.86 -11.78 3.15 -24.38 17.87 6.93 -8.27 0 -36.62 -6.50 0 7.60 1.14 0 0.00 0.00 0 0.00 -15.00 0 -4.58 0.00 0 -7.87 0.00 0 -3.94 0.00 0 0.00 0.00 0 -10.48 0.00 0 -10.48 0.00 0 -10.48 0.00 0 0.00 15.00 0 -21.26 0.00 0 -21.26 0.00 0 -21.26 0.00 0 0.00 25.00 0 -12.87 0.00 0 -12.87 0.00 0 -12.87 
-257.29 91.03 25.97 121.40 -6.54 -0.77 -13.41 -1.34 -2.90 -0.00 33.66 0.00 -6.21 -21.63 0.77 3.66 -12.47 3.38 0.00 27.39 0.00 -1.98 -10.11 -1.42 -6.20 19.21 -0.13 -1.50 4.36 0.18 -2.46 6.67 0.21 0.63 -1.56 -1.42 3.94 -23.78 -7.37 34.88 -18.28 -28.24 26.25 3.25 -22.39 4.49 -62.37 -39.83 -41.9 11.53 15.86 -9.82 14.13 1.26 -47.76 -0 17.17 15.02 -0 -12.66 -19.26 -0 0.00 0 -0 0.00 -15 -0 4.14 0 -0 2.11 0 -0 1.06 0 -0 0.00 0 -0 2.77 0 -0 2.77 0 -0 2.77 0 -0 0.00 15 -0 6.47 0 -0 6.47 0 -0 6.47 0 -0 0.00 25 -0 11.98 0 -0 11.98 0 -0 11.98 -18.94 13.02 13.50 -25.99 -56.23 58.51 -18.88 -12.69 3.21 -17.94 17.26 3.38 -9.44 0 -34.99 -8.83 0 9.23 1.44 0 0.00 0.00 0 0.00 -15.00 0 -0.18 0.00 0 -7.66 0.00 0 -3.83 0.00 0 0.00 0.00 0 -8.43 0.00 0 -8.43 0.00 0 -8.43 0.00 0 0.00 15.00 0 -18.62 0.00 0 -18.62 0.00 0 -18.62 0.00 0 0.00 25.00 0 -10.48 0.00 0 -10.48 0.00 0 -10.48 
-256.43 92.55 25.47 121.13 -6.71 -0.53 -13.72 -0.36 -3.42 0.00 33.29 0.00 -6.26 -21.63 1.40 3.30 -11.33 3.18 -0.00 26.96 -0.00 -1.39 -10.41 -1.46 -5.36 18.58 -0.71 -1.31 4.27 -0.00 -2.17 6.58 -0.07 0.61 -1.55 -1.40 3.09 -22.38 -6.36 34.38 -18.63 -28.49 26.31 2.59 -21.76 5.11 -60.52 -41.83 -42.06 11.02 16.10 -9.67 12.52 1.02 -47.67 -0 17.78 15.2 -0 -12.04 -19.77 -0 0.00 0 -0 0.00 -15 -0 4.58 0 -0 1.86 0 -0 0.93 0 -0 0.00 0 -0 3.35 0 -0 3.35 0 -0 3.35 0 -0 0.00 15 -0 6.62 0 -0 6.62 0 -0 6.62 0 -0 0.00 25 -0 11.29 0 -0 11.29 0 -0 11.29 -19.88 13.31 12.75 -26.33 -56.66 58.6 -18.32 -13.65 2.95 -17.10 16.93 2.99 -9.52 0 -34.82 -9.00 0 9.39 1.61 0 0.00 0.00 0 0.00 -15.00 0 -0.24 0.00 0 -7.29 0.00 0 -3.64 0.00 0 0.00 0.00 0 -8.13 0.00 0 -8.13 0.00 0 -8.13 0.00 0 0.00 15.00 0 -18.29 0.00 0 -18.29 0.00 0 -18.29 0.00 0 0.00 25.00 0 -10.14 0.00 0 -10.14 0.00 0 -10.14 
-255.61 92.85 24.96 121.03 -6.85 -0.28 -14.24 0.56 -3.97 0.00 32.97 -0.00 -6.30 -21.14 2.17 2.79 -10.45 2.92 0.00 26.92 0.00 -0.72 -10.90 -1.58 -4.65 18.06 -1.33 -1.15 4.20 -0.19 -1.94 6.50 -0.36 0.59 -1.54 -1.37 2.33 -21.18 -5.41 33.82 -18.97 -28.60 26.39 1.99 -21.28 5.44 -58.83 -43.51 -42.2 10.52 16.32 -9.52 10.89 0.77 -47.57 -0 18.39 15.4 -0 -11.43 -20.23 -0 0.00 0 -0 0.00 -15 -0 5.15 0 -0 1.53 0 -0 0.77 0 -0 0.00 0 -0 3.98 0 -0 3.98 0 -0 3.98 0 -0 0.00 15 -0 6.82 0 -0 6.82 0 -0 6.82 0 -0 0.00 25 -0 11.29 0 -0 11.29 0 -0 11.29 -20.71 13.60 11.99 -26.57 -57.08 58.77 -18.06 -14.55 2.46 -16.44 16.77 2.75 -9.59 0 -34.69 -9.14 0 9.53 1.78 0 0.00 0.00 0 0.00 -15.00 0 -0.33 0.00 0 -6.94 0.00 0 -3.47 0.00 0 0.00 0.00 0 -7.74 0.00 0 -7.74 0.00 0 -7.74 0.00 0 0.00 15.00 0 -18.12 0.00 0 -18.12 0.00 0 -18.12 0.00 0 0.00 25.00 0 -9.73 0.00 0 -9.73 0.00 0 -9.73 
-254.70 92.89 24.29 121.08 -6.83 -0.00 -15.21 1.33 -4.67 -0.00 32.94 -0.00 -6.36 -20.30 3.23 2.53 -9.77 2.55 -0.00 27.14 -0.00 -0.41 -11.71 -1.46 -4.10 17.51 -2.02 -1.03 4.11 -0.38 -1.77 6.39 -0.67 0.57 -1.52 -1.34 1.65 -20.11 -4.52 33.26 -19.33 -28.59 26.56 1.40 -20.81 5.46 -57.38 -44.92 -42.37 10.19 16.67 -9.35 9.25 0.50 -47.46 -0 19.02 15.61 -0 -10.80 -20.67 -0 0.00 0 -0 0.00 -15 -0 5.80 0 -0 1.13 0 -0 0.57 0 -0 0.00 0 -0 4.63 0 -0 4.63 0 -0 4.63 0 -0 0.00 15 -0 7.05 0 -0 7.05 0 -0 7.05 0 -0 0.00 25 -0 11.29 0 -0 11.29 0 -0 11.29 -21.46 13.91 11.26 -27.10 -57.17 59.36 -17.99 -15.23 2.01 -15.77 16.68 2.31 -9.68 0 -34.57 -9.31 0 9.65 1.88 0 0.00 0.00 0 0.00 -15.00 0 -0.24 0.00 0 -6.69 0.00 0 -3.34 0.00 0 0.00 0.00 0 -7.32 0.00 0 -7.32 0.00 0 -7.32 0.00 0 0.00 15.00 0 -17.91 0.00 0 -17.91 0.00 0 -17.91 0.00 0 0.00 25.00 0 -9.49 0.00 0 -9.49 0.00 0 -9.49 
-253.94 92.91 23.68 121.28 -6.67 0.32 -16.27 1.73 -5.15 0.00 33.41 0.00 -6.41 -18.90 4.21 2.84 -9.25 2.11 0.00 27.10 0.00 -0.80 -12.39 -0.95 -3.63 16.91 -2.75 -0.93 3.99 -0.58 -1.64 6.25 -0.99 0.55 -1.51 -1.31 1.41 -18.59 -4.08 32.26 -20.22 -28.53 26.54 0.86 -20.38 3.37 -56.57 -42.96 -43.01 11.79 16.81 -9.24 9.03 0.58 -47.4 -0 19.23 15.74 -0 -10.59 -21.16 -0 0.00 0 -0 0.00 -15 -0 5.86 0 -0 0.99 0 -0 0.49 0 -0 0.00 0 -0 4.77 0 -0 4.77 0 -0 4.77 0 -0 0.00 15 -0 7.16 0 -0 7.16 0 -0 7.16 0 -0 0.00 25 -0 11.91 0 -0 11.91 0 -0 11.91 -22.22 14.24 10.59 -27.63 -56.96 59.96 -18.13 -15.73 1.64 -15.00 16.45 1.60 -9.76 0 -34.45 -9.47 0 9.76 1.97 0 0.00 0.00 0 0.00 -15.00 0 0.13 0.00 0 -6.41 0.00 0 -3.20 0.00 0 0.00 0.00 0 -6.86 0.00 0 -6.86 0.00 0 -6.86 0.00 0 0.00 15.00 0 -17.57 0.00 0 -17.57 0.00 0 -17.57 0.00 0 0.00 25.00 0 -9.29 0.00 0 -9.29 0.00 0 -9.29 
-253.16 92.89 23.21 121.47 -6.43 0.67 -17.03 1.79 -5.65 -0.00 34.57 0.00 -6.70 -17.09 5.43 3.64 -8.89 1.80 -0.00 27.13 -0.00 -1.64 -13.19 -0.55 -3.24 16.32 -3.43 -0.85 3.88 -0.76 -1.53 6.09 -1.30 0.53 -1.51 -1.28 1.31 -17.14 -3.80 31.28 -21.15 -28.43 26.46 0.30 -19.99 1.69 -55.76 -41.33 -43.72 13.45 16.96 -9.17 8.85 0.69 -47.32 -0 19.43 15.9 -0 -10.39 -21.67 -0 0.00 0 -0 0.00 -15 -0 5.93 0 -0 0.82 0 -0 0.41 0 -0 0.00 0 -0 4.92 0 -0 4.92 0 -0 4.92 0 -0 0.00 15 -0 7.26 0 -0 7.26 0 -0 7.26 0 -0 0.00 25 -0 12.58 0 -0 12.58 0 -0 12.58 -22.97 14.44 9.80 -27.76 -56.55 60.32 -18.60 -16.29 1.26 -14.28 16.09 0.95 -9.82 0 -34.37 -9.59 0 9.84 2.03 0 0.00 0.00 0 0.00 -15.00 0 0.45 0.00 0 -6.23 0.00 0 -3.11 0.00 0 0.00 0.00 0 -6.45 0.00 0 -6.45 0.00 0 -6.45 0.00 0 0.00 15.00 0 -17.22 0.00 0 -17.22 0.00 0 -17.22 0.00 0 0.00 25.00 0 -8.85 0.00 0 -8.85 0.00 0 -8.85 
-252.31 92.81 22.66 121.60 -6.07 1.01 -17.42 1.34 -5.84 -0.00 36.40 -0.00 -7.32 -14.92 6.50 4.53 -8.71 1.52 0.00 27.43 0.00 -2.64 -14.01 -0.31 -2.81 15.67 -4.10 -0.75 3.75 -0.94 -1.40 5.91 -1.59 0.52 -1.50 -1.25 0.83 -12.70 -3.44 31.18 -24.67 -29.98 26.30 -0.21 -19.67 2.10 -54.72 -42.91 -44.02 13.25 17.53 -10.15 15.35 3.10 -47.26 -0 17.11 16.02 -0 -12.71 -22.22 -0 0.00 0 -0 0.00 -15 -0 2.32 0 -0 0.46 0 -0 0.23 0 -0 0.00 0 -0 2.30 0 -0 2.30 0 -0 2.30 0 -0 0.00 15 -0 6.54 0 -0 6.54 0 -0 6.54 0 -0 0.00 25 -0 15.27 0 -0 15.27 0 -0 15.27 -23.80 14.67 8.82 -27.88 -55.98 60.93 -19.25 -16.95 0.78 -13.86 15.57 0.98 -9.97 0 -34.40 -9.89 0 9.82 2.01 0 0.00 0.00 0 0.00 -15.00 0 0.20 0.00 0 -6.16 0.00 0 -3.08 0.00 0 0.00 0.00 0 -6.37 0.00 0 -6.37 0.00 0 -6.37 0.00 0 0.00 15.00 0 -17.18 0.00 0 -17.18 0.00 0 -17.18 0.00 0 0.00 25.00 0 -8.77 0.00 0 -8.77 0.00 0 -8.77 
-251.51 92.72 22.20 121.64 -5.65 1.34 -17.58 0.64 -5.90 -0.00 38.44 -0.00 -8.16 -12.82 7.26 5.03 -8.64 1.27 -0.00 27.74 -0.00 -3.15 -14.79 -0.21 -2.31 14.70 -4.80 -0.66 4.06 -1.14 -1.26 5.78 -1.90 0.49 -1.49 -1.22 0.78 -11.89 -3.22 30.13 -25.32 -29.46 26.12 -0.83 -19.48 2.15 -53.96 -44.15 -44.28 13.03 18.28 -10.26 15.25 3.09 -47.19 -0 17.21 16.17 -0 -12.61 -22.68 -0 0.00 0 -0 0.00 -15 -0 2.26 0 -0 0.26 0 -0 0.13 0 -0 0.00 0 -0 2.37 0 -0 2.37 0 -0 2.37 0 -0 0.00 15 -0 6.68 0 -0 6.68 0 -0 6.68 0 -0 0.00 25 -0 15.25 0 -0 15.25 0 -0 15.25 -24.52 14.79 7.99 -28.13 -55.44 61.81 -19.97 -17.8 0.22 -13.39 15.35 1.03 -10.12 0 -34.47 -10.19 0 9.75 2.00 0 0.00 0.00 0 0.00 -15.00 0 0.08 0.00 0 -6.17 0.00 0 -3.09 0.00 0 0.00 0.00 0 -6.28 0.00 0 -6.28 0.00 0 -6.28 0.00 0 0.00 15.00 0 -17.15 0.00 0 -17.15 0.00 0 -17.15 0.00 0 0.00 25.00 0 -8.65 0.00 0 -8.65 0.00 0 -8.65 
-250.79 92.66 21.77 121.55 -5.16 1.73 -17.21 -0.62 -5.70 -0.00 40.72 0.00 -9.61 -10.36 7.57 5.24 -8.49 0.87 -0.00 27.71 0.00 -3.18 -15.37 -0.02 -1.86 14.34 -5.64 -0.55 3.64 -1.36 -1.14 5.93 -2.27 0.55 -2.35 -1.19 0.67 -10.46 -3.00 29.10 -26.05 -28.79 25.97 -0.75 -18.98 0.38 -53.49 -42.37 -44.94 14.29 18.49 -10.35 15.11 3.08 -47.12 -0 16.84 16.31 -0 -12.98 -22.4 -0 0.00 0 -0 0.00 -15 -0 2.21 0 -0 0.26 0 -0 0.13 0 -0 0.00 0 -0 2.51 0 -0 2.51 0 -0 2.51 0 -0 0.00 15 -0 6.91 0 -0 6.91 0 -0 6.91 0 -0 0.00 25 -0 12.55 0 -0 12.55 0 -0 12.55 -25.31 15.48 6.86 -28.62 -54.64 63.05 -20.18 -18.61 -0.10 -13.28 15.53 0.57 -10.19 0 -34.55 -10.34 0 9.66 2.44 0 0.00 0.00 0 0.00 -15.00 0 0.52 0.00 0 -6.27 0.00 0 -3.13 0.00 0 0.00 0.00 0 -5.94 0.00 0 -5.94 0.00 0 -5.94 0.00 0 0.00 15.00 0 -16.88 0.00 0 -16.88 0.00 0 -16.88 0.00 0 0.00 25.00 0 -8.43 0.00 0 -8.43 0.00 0 -8.43 
-250.04 92.59 21.30 121.35 -4.71 2.16 -17.08 -1.80 -5.61 0.00 42.69 0.00 -10.95 -8.07 6.94 5.33 -8.24 0.42 -0.00 27.68 -0.00 -2.99 -15.96 0.09 -1.40 14.11 -6.59 -0.45 3.58 -1.61 -1.02 5.80 -2.68 0.54 -2.33 -1.14 0.62 -10.06 -2.81 28.05 -26.84 -27.99 25.72 -1.41 -18.89 -1.30 -53.28 -40.54 -45.55 15.42 18.72 -10.39 14.97 3.21 -47.05 -0 16.43 16.44 -0 -13.39 -22.11 -0 0.00 0 -0 0.00 -15 -0 2.16 0 -0 0.10 0 -0 0.05 0 -0 0.00 0 -0 2.60 0 -0 2.60 0 -0 2.60 0 -0 0.00 15 -0 7.07 0 -0 7.07 0 -0 7.07 0 -0 0.00 25 -0 12.58 0 -0 12.58 0 -0 12.58 -25.99 15.28 6.20 -29.04 -53.58 64.33 -20.39 -19.23 -0.31 -13.41 15.52 0.27 -10.26 0 -34.73 -10.48 0 9.49 2.93 0 0.00 0.00 0 0.00 -15.00 0 0.83 0.00 0 -6.45 0.00 0 -3.23 0.00 0 0.00 0.00 0 -5.73 0.00 0 -5.73 0.00 0 -5.73 0.00 0 0.00 15.00 0 -16.73 0.00 0 -16.73 0.00 0 -16.73 0.00 0 0.00 25.00 0 -8.35 0.00 0 -8.35 0.00 0 -8.35 
